<svg xmlns="http://www.w3.org/2000/svg" xmlns:xlink="http://www.w3.org/1999/xlink" width="2458" zoomAndPan="magnify" viewBox="0 0 1843.5 383.999986" height="512" preserveAspectRatio="xMidYMid meet" version="1.0"><defs><g/><clipPath id="cfa4db8569"><path d="M 293.828125 35.0625 L 689 35.0625 L 689 354.882812 L 293.828125 354.882812 Z M 293.828125 35.0625 " clip-rule="nonzero"/></clipPath><clipPath id="48ddfc0f90"><path d="M 415.878906 169.097656 L 467.800781 169.097656 L 467.800781 221.019531 L 415.878906 221.019531 Z M 415.878906 169.097656 " clip-rule="nonzero"/></clipPath><clipPath id="c0b084b784"><path d="M 441.839844 169.097656 C 427.503906 169.097656 415.878906 180.722656 415.878906 195.058594 C 415.878906 209.398438 427.503906 221.019531 441.839844 221.019531 C 456.179688 221.019531 467.800781 209.398438 467.800781 195.058594 C 467.800781 180.722656 456.179688 169.097656 441.839844 169.097656 Z M 441.839844 169.097656 " clip-rule="nonzero"/></clipPath></defs><g clip-path="url(#cfa4db8569)"><path fill="#29a2a7" d="M 404.363281 66.425781 L 489.300781 66.425781 C 507.394531 66.425781 522.957031 62.238281 538.679688 53.234375 L 567.675781 36.484375 C 570.125 35.0625 572.890625 35.0625 575.261719 36.484375 C 577.710938 37.90625 579.054688 40.273438 579.054688 43.039062 L 579.054688 66.425781 L 638.074219 66.425781 C 651.980469 66.425781 663.359375 77.804688 663.359375 91.710938 L 663.359375 168.429688 L 681.925781 168.429688 C 685.71875 168.429688 688.878906 171.589844 688.878906 175.382812 L 688.878906 214.730469 C 688.878906 218.523438 685.71875 221.683594 681.925781 221.683594 L 663.359375 221.683594 L 663.359375 238.667969 C 663.359375 262.054688 653.796875 283.308594 638.390625 298.71875 C 622.984375 314.125 601.730469 323.683594 578.34375 323.683594 L 493.40625 323.683594 C 475.316406 323.683594 459.75 327.871094 444.027344 336.878906 L 415.03125 353.628906 C 412.582031 355.050781 409.816406 355.050781 407.445312 353.628906 C 404.996094 352.207031 403.652344 349.835938 403.652344 347.070312 L 403.652344 323.683594 L 344.632812 323.683594 C 330.726562 323.683594 319.347656 312.308594 319.347656 298.402344 L 319.347656 221.683594 L 300.78125 221.683594 C 296.988281 221.683594 293.828125 218.523438 293.828125 214.730469 L 293.828125 175.382812 C 293.828125 171.589844 296.988281 168.429688 300.78125 168.429688 L 319.347656 168.429688 L 319.347656 151.441406 C 319.347656 128.054688 328.910156 106.800781 344.316406 91.394531 C 359.722656 75.988281 380.976562 66.425781 404.363281 66.425781 Z M 463.699219 195.054688 C 463.699219 181.546875 452.71875 170.5625 439.207031 170.5625 C 425.695312 170.5625 414.714844 181.546875 414.714844 195.054688 C 414.714844 208.566406 425.695312 219.550781 439.207031 219.550781 C 452.71875 219.550781 463.699219 208.566406 463.699219 195.054688 Z M 567.992188 195.054688 C 567.992188 181.546875 557.011719 170.5625 543.5 170.5625 C 529.988281 170.5625 519.007812 181.546875 519.007812 195.054688 C 519.007812 208.566406 529.988281 219.550781 543.5 219.550781 C 557.011719 219.550781 567.992188 208.566406 567.992188 195.054688 Z M 631.753906 195.054688 L 631.753906 98.109375 C 624.328125 98.109375 616.820312 98.109375 609.394531 98.109375 C 592.644531 98.109375 579.054688 84.441406 579.054688 67.769531 L 579.054688 66.507812 L 556.851562 79.304688 C 534.492188 92.183594 512.449219 98.109375 486.613281 98.109375 L 404.363281 98.109375 C 389.667969 98.109375 376.394531 104.117188 366.675781 113.832031 C 356.957031 123.550781 350.953125 136.824219 350.953125 151.519531 L 350.953125 292.082031 C 358.378906 292.082031 365.886719 292.082031 373.3125 292.082031 C 390.0625 292.082031 403.652344 305.75 403.652344 322.421875 L 403.652344 323.683594 L 425.855469 310.882812 C 448.214844 298.007812 470.257812 292.082031 496.09375 292.082031 L 578.34375 292.082031 C 593.039062 292.082031 606.3125 286.074219 616.03125 276.355469 C 625.75 266.640625 631.753906 253.367188 631.753906 238.667969 Z M 631.753906 195.054688 " fill-opacity="1" fill-rule="evenodd"/></g><g clip-path="url(#48ddfc0f90)"><g clip-path="url(#c0b084b784)"><path fill="#29a2a7" d="M 415.878906 169.097656 L 467.800781 169.097656 L 467.800781 221.019531 L 415.878906 221.019531 Z M 415.878906 169.097656 " fill-opacity="1" fill-rule="nonzero"/></g></g><g fill="#29a2a7" fill-opacity="1"><g transform="translate(708.800199, 303.102081)"><g><path d="M 59.234375 -167.796875 L 60.640625 -149.03125 C 72.523438 -163.601562 88.597656 -170.890625 108.859375 -170.890625 C 130.460938 -170.890625 145.300781 -162.363281 153.375 -145.3125 C 165.15625 -162.363281 181.953125 -170.890625 203.765625 -170.890625 C 221.960938 -170.890625 235.503906 -165.59375 244.390625 -155 C 253.285156 -144.40625 257.734375 -128.457031 257.734375 -107.15625 L 257.734375 0 L 212.765625 0 L 212.765625 -107 C 212.765625 -116.507812 210.898438 -123.460938 207.171875 -127.859375 C 203.453125 -132.253906 196.890625 -134.453125 187.484375 -134.453125 C 174.046875 -134.453125 164.742188 -128.039062 159.578125 -115.21875 L 159.734375 0 L 114.90625 0 L 114.90625 -106.84375 C 114.90625 -116.5625 112.992188 -123.59375 109.171875 -127.9375 C 105.347656 -132.28125 98.835938 -134.453125 89.640625 -134.453125 C 76.921875 -134.453125 67.71875 -129.175781 62.03125 -118.625 L 62.03125 0 L 17.21875 0 L 17.21875 -167.796875 Z M 59.234375 -167.796875 "/></g></g><g transform="translate(983.743644, 303.102081)"><g><path d="M 94.4375 3.09375 C 69.832031 3.09375 49.800781 -4.453125 34.34375 -19.546875 C 18.894531 -34.640625 11.171875 -54.742188 11.171875 -79.859375 L 11.171875 -84.203125 C 11.171875 -101.054688 14.425781 -116.125 20.9375 -129.40625 C 27.445312 -142.695312 36.671875 -152.929688 48.609375 -160.109375 C 60.554688 -167.296875 74.179688 -170.890625 89.484375 -170.890625 C 112.429688 -170.890625 130.492188 -163.648438 143.671875 -149.171875 C 156.859375 -134.703125 163.453125 -114.1875 163.453125 -87.625 L 163.453125 -69.3125 L 56.609375 -69.3125 C 58.054688 -58.351562 62.421875 -49.566406 69.703125 -42.953125 C 76.992188 -36.335938 86.222656 -33.03125 97.390625 -33.03125 C 114.648438 -33.03125 128.140625 -39.285156 137.859375 -51.796875 L 159.875 -27.140625 C 153.15625 -17.628906 144.054688 -10.210938 132.578125 -4.890625 C 121.109375 0.429688 108.394531 3.09375 94.4375 3.09375 Z M 89.328125 -134.609375 C 80.429688 -134.609375 73.21875 -131.609375 67.6875 -125.609375 C 62.15625 -119.609375 58.613281 -111.03125 57.0625 -99.875 L 119.40625 -99.875 L 119.40625 -103.4375 C 119.195312 -113.363281 116.507812 -121.039062 111.34375 -126.46875 C 106.175781 -131.894531 98.835938 -134.609375 89.328125 -134.609375 Z M 89.328125 -134.609375 "/></g></g><g transform="translate(1155.408839, 303.102081)"><g><path d="M 10.703125 -85.140625 C 10.703125 -110.878906 16.828125 -131.601562 29.078125 -147.3125 C 41.328125 -163.03125 57.84375 -170.890625 78.625 -170.890625 C 97.019531 -170.890625 111.335938 -164.582031 121.578125 -151.96875 L 123.4375 -167.796875 L 164.0625 -167.796875 L 164.0625 -5.578125 C 164.0625 9.097656 160.726562 21.863281 154.0625 32.71875 C 147.394531 43.570312 138.015625 51.84375 125.921875 57.53125 C 113.828125 63.21875 99.664062 66.0625 83.4375 66.0625 C 71.125 66.0625 59.125 63.601562 47.4375 58.6875 C 35.757812 53.78125 26.925781 47.453125 20.9375 39.703125 L 40.78125 12.40625 C 51.945312 24.914062 65.492188 31.171875 81.421875 31.171875 C 93.304688 31.171875 102.554688 27.988281 109.171875 21.625 C 115.785156 15.269531 119.09375 6.253906 119.09375 -5.421875 L 119.09375 -14.421875 C 108.757812 -2.742188 95.164062 3.09375 78.3125 3.09375 C 58.15625 3.09375 41.847656 -4.785156 29.390625 -20.546875 C 16.929688 -36.316406 10.703125 -57.226562 10.703125 -83.28125 Z M 55.515625 -81.875 C 55.515625 -66.675781 58.5625 -54.757812 64.65625 -46.125 C 70.757812 -37.5 79.132812 -33.1875 89.78125 -33.1875 C 103.4375 -33.1875 113.207031 -38.300781 119.09375 -48.53125 L 119.09375 -119.09375 C 113.101562 -129.332031 103.4375 -134.453125 90.09375 -134.453125 C 79.34375 -134.453125 70.890625 -130.054688 64.734375 -121.265625 C 58.585938 -112.484375 55.515625 -99.351562 55.515625 -81.875 Z M 55.515625 -81.875 "/></g></g><g transform="translate(1336.688526, 303.102081)"><g><path d="M 114.453125 0 C 112.378906 -4.03125 110.878906 -9.046875 109.953125 -15.046875 C 99.097656 -2.953125 84.984375 3.09375 67.609375 3.09375 C 51.171875 3.09375 37.550781 -1.660156 26.75 -11.171875 C 15.945312 -20.679688 10.546875 -32.671875 10.546875 -47.140625 C 10.546875 -64.921875 17.132812 -78.566406 30.3125 -88.078125 C 43.5 -97.585938 62.550781 -102.394531 87.46875 -102.5 L 108.09375 -102.5 L 108.09375 -112.125 C 108.09375 -119.875 106.097656 -126.070312 102.109375 -130.71875 C 98.128906 -135.375 91.851562 -137.703125 83.28125 -137.703125 C 75.726562 -137.703125 69.804688 -135.890625 65.515625 -132.265625 C 61.222656 -128.648438 59.078125 -123.691406 59.078125 -117.390625 L 14.265625 -117.390625 C 14.265625 -127.109375 17.257812 -136.101562 23.25 -144.375 C 29.25 -152.644531 37.726562 -159.128906 48.6875 -163.828125 C 59.644531 -168.535156 71.945312 -170.890625 85.59375 -170.890625 C 106.269531 -170.890625 122.679688 -165.691406 134.828125 -155.296875 C 146.984375 -144.910156 153.0625 -130.3125 153.0625 -111.5 L 153.0625 -38.765625 C 153.164062 -22.847656 155.390625 -10.804688 159.734375 -2.640625 L 159.734375 0 Z M 77.375 -31.171875 C 84 -31.171875 90.101562 -32.644531 95.6875 -35.59375 C 101.269531 -38.539062 105.40625 -42.492188 108.09375 -47.453125 L 108.09375 -76.296875 L 91.34375 -76.296875 C 68.90625 -76.296875 56.960938 -68.539062 55.515625 -53.03125 L 55.359375 -50.40625 C 55.359375 -44.820312 57.320312 -40.21875 61.25 -36.59375 C 65.175781 -32.976562 70.550781 -31.171875 77.375 -31.171875 Z M 77.375 -31.171875 "/></g></g></g></svg>