<svg xmlns="http://www.w3.org/2000/svg" xmlns:xlink="http://www.w3.org/1999/xlink" width="512" zoomAndPan="magnify" viewBox="0 0 384 383.999986" height="512" preserveAspectRatio="xMidYMid meet" version="1.0"><defs><clipPath id="46bfc63d17"><path d="M 11.347656 45.671875 L 372.847656 45.671875 L 372.847656 338 L 11.347656 338 Z M 11.347656 45.671875 " clip-rule="nonzero"/></clipPath><clipPath id="d9da2ec210"><path d="M 122.972656 168.257812 L 170.457031 168.257812 L 170.457031 215.742188 L 122.972656 215.742188 Z M 122.972656 168.257812 " clip-rule="nonzero"/></clipPath><clipPath id="3a9b161921"><path d="M 146.714844 168.257812 C 133.601562 168.257812 122.972656 178.886719 122.972656 192 C 122.972656 205.113281 133.601562 215.742188 146.714844 215.742188 C 159.828125 215.742188 170.457031 205.113281 170.457031 192 C 170.457031 178.886719 159.828125 168.257812 146.714844 168.257812 Z M 146.714844 168.257812 " clip-rule="nonzero"/></clipPath></defs><g clip-path="url(#46bfc63d17)"><path fill="#29a2a7" d="M 112.4375 74.359375 L 190.117188 74.359375 C 206.664062 74.359375 220.902344 70.527344 235.28125 62.289062 L 261.800781 46.972656 C 264.039062 45.671875 266.570312 45.671875 268.738281 46.972656 C 270.976562 48.273438 272.207031 50.441406 272.207031 52.96875 L 272.207031 74.359375 L 326.183594 74.359375 C 338.902344 74.359375 349.304688 84.761719 349.304688 97.480469 L 349.304688 167.644531 L 366.289062 167.644531 C 369.757812 167.644531 372.644531 170.535156 372.644531 174.003906 L 372.644531 209.988281 C 372.644531 213.457031 369.757812 216.347656 366.289062 216.347656 L 349.304688 216.347656 L 349.304688 231.882812 C 349.304688 253.273438 340.5625 272.710938 326.472656 286.800781 C 312.382812 300.890625 292.945312 309.636719 271.554688 309.636719 L 193.875 309.636719 C 177.328125 309.636719 163.09375 313.464844 148.714844 321.703125 L 122.195312 337.023438 C 119.953125 338.324219 117.425781 338.324219 115.257812 337.023438 C 113.015625 335.722656 111.789062 333.554688 111.789062 331.023438 L 111.789062 309.636719 L 57.808594 309.636719 C 45.09375 309.636719 34.6875 299.230469 34.6875 286.511719 L 34.6875 216.347656 L 17.707031 216.347656 C 14.238281 216.347656 11.347656 213.457031 11.347656 209.988281 L 11.347656 174.003906 C 11.347656 170.535156 14.238281 167.644531 17.707031 167.644531 L 34.6875 167.644531 L 34.6875 152.109375 C 34.6875 130.71875 43.429688 111.28125 57.519531 97.191406 C 71.613281 83.101562 91.050781 74.359375 112.4375 74.359375 Z M 166.707031 191.996094 C 166.707031 179.640625 156.660156 169.597656 144.304688 169.597656 C 131.949219 169.597656 121.90625 179.640625 121.90625 191.996094 C 121.90625 204.351562 131.949219 214.398438 144.304688 214.398438 C 156.660156 214.398438 166.707031 204.351562 166.707031 191.996094 Z M 262.089844 191.996094 C 262.089844 179.640625 252.042969 169.597656 239.6875 169.597656 C 227.332031 169.597656 217.289062 179.640625 217.289062 191.996094 C 217.289062 204.351562 227.332031 214.398438 239.6875 214.398438 C 252.042969 214.398438 262.089844 204.351562 262.089844 191.996094 Z M 320.402344 191.996094 L 320.402344 103.335938 C 313.609375 103.335938 306.746094 103.335938 299.953125 103.335938 C 284.632812 103.335938 272.207031 90.832031 272.207031 75.585938 L 272.207031 74.429688 L 251.898438 86.136719 C 231.449219 97.914062 211.289062 103.335938 187.660156 103.335938 L 112.4375 103.335938 C 99 103.335938 86.859375 108.824219 77.972656 117.714844 C 69.082031 126.601562 63.589844 138.742188 63.589844 152.183594 L 63.589844 280.730469 C 70.382812 280.730469 77.25 280.730469 84.039062 280.730469 C 99.359375 280.730469 111.789062 293.234375 111.789062 308.480469 L 111.789062 309.636719 L 132.09375 297.929688 C 152.542969 286.152344 172.703125 280.730469 196.332031 280.730469 L 271.554688 280.730469 C 284.996094 280.730469 297.136719 275.238281 306.023438 266.351562 C 314.910156 257.464844 320.402344 245.324219 320.402344 231.882812 Z M 320.402344 191.996094 " fill-opacity="1" fill-rule="evenodd"/></g><g clip-path="url(#d9da2ec210)"><g clip-path="url(#3a9b161921)"><path fill="#29a2a7" d="M 122.972656 168.257812 L 170.457031 168.257812 L 170.457031 215.742188 L 122.972656 215.742188 Z M 122.972656 168.257812 " fill-opacity="1" fill-rule="nonzero"/></g></g></svg>